<?xml version="1.0" encoding="UTF-8"?>
<svg fill="#417068" width="100pt" height="100pt" version="1.1" viewBox="0 0 100 100" xmlns="http://www.w3.org/2000/svg">
 <path d="m86.781 19.219l11.219-11.219v33h-33l11.102-11.102c-6.207-8.043-15.766-12.777-25.926-12.844-10.156-0.0625-19.777 4.5547-26.082 12.52-6.3047 7.9648-8.5898 18.387-6.1953 28.258 2.3945 9.8711 9.2031 18.09 18.453 22.281 9.2539 4.1914 19.922 3.8906 28.918-0.82031 9-4.7109 15.332-13.301 17.16-23.293h15.129c-1.8555 14.703-10.402 27.727-23.152 35.281-12.75 7.5586-28.277 8.7969-42.066 3.3633-13.789-5.4336-24.297-16.934-28.465-31.156-4.168-14.223-1.5312-29.574 7.1406-41.594 8.6758-12.016 22.414-19.355 37.227-19.875 14.812-0.52344 29.039 5.8242 38.539 17.199z"/>
</svg>
