<?xml version="1.0" encoding="UTF-8"?>
<svg fill="#417068" width="100pt" height="100pt" version="1.1" viewBox="0 0 100 100" xmlns="http://www.w3.org/2000/svg">
 <g>
  <path d="m61 35.5-16.102 16-5.8984-5.8984c-2.3984-2.3984-6.3008-2.3984-8.6992 0-2.3984 2.3984-2.3984 6.3008 0 8.6992l10.301 10.301c1.1992 1.1992 2.6992 1.8008 4.3008 1.8008 1.6016 0 3.1992-0.60156 4.3008-1.8008l20.398-20.398c2.3984-2.3984 2.3984-6.3008 0-8.6992-2.3008-2.4023-6.2031-2.4023-8.6016-0.003906z"/>
  <path d="m50 2.5c-26.199 0-47.5 21.301-47.5 47.5s21.301 47.5 47.5 47.5 47.5-21.301 47.5-47.5-21.301-47.5-47.5-47.5zm0 82.699c-19.398 0-35.199-15.801-35.199-35.199s15.801-35.199 35.199-35.199 35.199 15.801 35.199 35.199-15.801 35.199-35.199 35.199z"/>
 </g>
</svg>
